<svg xmlns="http://www.w3.org/2000/svg" viewBox="0 0 300 400" width="300" height="400">
  <defs>
    <linearGradient id="bgGrad_10" x1="0%" y1="0%" x2="100%" y2="100%">
      <stop offset="0%" stop-color="#0F172A"/>
      <stop offset="100%" stop-color="#050505"/>
    </linearGradient>
    <radialGradient id="spotlight_10" cx="50%" cy="30%" r="60%">
      <stop offset="0%" stop-color="#16A34A" stop-opacity="0.3"/>
      <stop offset="100%" stop-color="#16A34A" stop-opacity="0"/>
    </radialGradient>
  </defs>

  <!-- Background -->
  <rect width="300" height="400" fill="url(#bgGrad_10)"/>
  <rect width="300" height="400" fill="url(#spotlight_10)"/>
  
  <!-- Subtle Grid Lines -->
  <path d="M0 100 H300 M0 200 H300 M0 300 H300 M100 0 V400 M200 0 V400" stroke="#FFFFFF" stroke-opacity="0.03" stroke-width="1"/>

  <!-- Jersey Badge Background Number -->
  <text x="150" y="220" font-family="Impact, sans-serif" font-size="160" font-weight="900" fill="#16A34A" fill-opacity="0.08" text-anchor="middle">10</text>

  <!-- Player Silhouette -->
  <!-- Head -->
  <circle cx="150" cy="115" r="42" fill="#262626" stroke="#16A34A" stroke-width="2"/>
  <path d="M 125 110 Q 150 85 175 110 Q 165 95 150 95 Q 135 95 125 110 Z" fill="#171717"/>
  
  <!-- Shoulders & Jersey -->
  <path d="M 75 290 Q 75 190 115 170 Q 150 160 185 170 Q 225 190 225 290 Z" fill="#141414" stroke="#16A34A" stroke-width="2"/>
  
  <!-- Jersey Collar -->
  <path d="M 130 170 Q 150 195 170 170" fill="none" stroke="#16A34A" stroke-width="3"/>
  
  <!-- DCF Logo Badge on Chest -->
  <circle cx="120" cy="205" r="10" fill="#0A0A0A" stroke="#16A34A" stroke-width="1.5"/>
  <text x="120" y="208" font-family="sans-serif" font-size="6" font-weight="bold" fill="#FFFFFF" text-anchor="middle">DCF</text>

  <!-- Jersey Number on Chest -->
  <text x="150" y="260" font-family="Arial Black, sans-serif" font-size="52" font-weight="900" fill="#FFFFFF" text-anchor="middle">10</text>

  <!-- Bottom Dark Gradient Overlay -->
  <rect y="310" width="300" height="90" fill="url(#bgGrad_10)"/>

  <!-- Name & Position Ribbon -->
  <rect x="20" y="340" width="260" height="42" fill="#0D0D0D" stroke="#16A34A" stroke-width="1.5" rx="4"/>
  <text x="35" y="367" font-family="Arial Black, sans-serif" font-size="18" font-weight="bold" fill="#FFFFFF">A. Kumar</text>
  <rect x="210" y="348" width="60" height="26" fill="#16A34A" rx="3"/>
  <text x="240" y="366" font-family="Arial Black, sans-serif" font-size="13" font-weight="bold" fill="#FFFFFF" text-anchor="middle">CM</text>
</svg>